<mxfile host="app.diagrams.net" modified="2022-09-27T06:32:54.566Z" agent="5.0 (Windows NT 10.0; Win64; x64) AppleWebKit/537.36 (KHTML, like Gecko) Chrome/90.0.4430.72 Safari/537.36" etag="wFp11VhOvljEoS5Q5FLJ" version="20.3.6" type="github">
  <diagram id="FrFlHdCthbRdy5a_3o6Q" name="第 1 页">
    <mxGraphModel dx="1422" dy="762" grid="1" gridSize="10" guides="1" tooltips="1" connect="1" arrows="1" fold="1" page="1" pageScale="1" pageWidth="827" pageHeight="1169" math="1" shadow="0">
      <root>
        <mxCell id="0" />
        <mxCell id="1" parent="0" />
        <mxCell id="YQT-GJjzDpRAaSsOrroV-4" style="rounded=0;orthogonalLoop=1;jettySize=auto;html=1;" edge="1" parent="1" source="YQT-GJjzDpRAaSsOrroV-2" target="YQT-GJjzDpRAaSsOrroV-3">
          <mxGeometry relative="1" as="geometry" />
        </mxCell>
        <mxCell id="YQT-GJjzDpRAaSsOrroV-5" style="edgeStyle=none;rounded=0;orthogonalLoop=1;jettySize=auto;html=1;" edge="1" parent="1" source="YQT-GJjzDpRAaSsOrroV-2" target="YQT-GJjzDpRAaSsOrroV-6">
          <mxGeometry relative="1" as="geometry">
            <mxPoint x="440" y="360" as="targetPoint" />
          </mxGeometry>
        </mxCell>
        <mxCell id="YQT-GJjzDpRAaSsOrroV-2" value="guessing flag[n,i]" style="ellipse;whiteSpace=wrap;html=1;" vertex="1" parent="1">
          <mxGeometry x="294" y="90" width="120" height="80" as="geometry" />
        </mxCell>
        <mxCell id="YQT-GJjzDpRAaSsOrroV-7" style="edgeStyle=none;rounded=0;orthogonalLoop=1;jettySize=auto;html=1;" edge="1" parent="1" source="YQT-GJjzDpRAaSsOrroV-3" target="YQT-GJjzDpRAaSsOrroV-9">
          <mxGeometry relative="1" as="geometry">
            <mxPoint x="80" y="500" as="targetPoint" />
          </mxGeometry>
        </mxCell>
        <mxCell id="YQT-GJjzDpRAaSsOrroV-8" style="edgeStyle=none;rounded=0;orthogonalLoop=1;jettySize=auto;html=1;entryX=0.5;entryY=0;entryDx=0;entryDy=0;" edge="1" parent="1" source="YQT-GJjzDpRAaSsOrroV-3" target="YQT-GJjzDpRAaSsOrroV-15">
          <mxGeometry relative="1" as="geometry">
            <mxPoint x="180" y="475" as="targetPoint" />
          </mxGeometry>
        </mxCell>
        <mxCell id="YQT-GJjzDpRAaSsOrroV-12" style="edgeStyle=none;rounded=0;orthogonalLoop=1;jettySize=auto;html=1;entryX=0.5;entryY=0;entryDx=0;entryDy=0;" edge="1" parent="1" source="YQT-GJjzDpRAaSsOrroV-3" target="YQT-GJjzDpRAaSsOrroV-16">
          <mxGeometry relative="1" as="geometry">
            <mxPoint x="257.54067544889904" y="472.844621176072" as="targetPoint" />
          </mxGeometry>
        </mxCell>
        <mxCell id="YQT-GJjzDpRAaSsOrroV-14" style="edgeStyle=none;rounded=0;orthogonalLoop=1;jettySize=auto;html=1;entryX=0.5;entryY=0;entryDx=0;entryDy=0;" edge="1" parent="1" source="YQT-GJjzDpRAaSsOrroV-3" target="YQT-GJjzDpRAaSsOrroV-13">
          <mxGeometry relative="1" as="geometry" />
        </mxCell>
        <mxCell id="YQT-GJjzDpRAaSsOrroV-3" value="class correct prob" style="ellipse;whiteSpace=wrap;html=1;" vertex="1" parent="1">
          <mxGeometry x="120" y="280" width="120" height="80" as="geometry" />
        </mxCell>
        <mxCell id="YQT-GJjzDpRAaSsOrroV-6" value="P(Y=1) = 0.25" style="ellipse;whiteSpace=wrap;html=1;" vertex="1" parent="1">
          <mxGeometry x="480" y="320" width="120" height="80" as="geometry" />
        </mxCell>
        <mxCell id="YQT-GJjzDpRAaSsOrroV-9" value="P(Y=1|C[n]=1) = 0.9" style="ellipse;whiteSpace=wrap;html=1;" vertex="1" parent="1">
          <mxGeometry x="20" y="478.75" width="90" height="37.5" as="geometry" />
        </mxCell>
        <mxCell id="YQT-GJjzDpRAaSsOrroV-13" value="P(Y=1|C[n]=4) = 0.6" style="ellipse;whiteSpace=wrap;html=1;" vertex="1" parent="1">
          <mxGeometry x="320" y="480" width="80" height="40" as="geometry" />
        </mxCell>
        <mxCell id="YQT-GJjzDpRAaSsOrroV-15" value="P(Y=1|C[n]=2) = 0.8" style="ellipse;whiteSpace=wrap;html=1;" vertex="1" parent="1">
          <mxGeometry x="120" y="477.5" width="80" height="40" as="geometry" />
        </mxCell>
        <mxCell id="YQT-GJjzDpRAaSsOrroV-16" value="P(Y=1|C[n]=3) = 0.7" style="ellipse;whiteSpace=wrap;html=1;" vertex="1" parent="1">
          <mxGeometry x="220" y="480" width="80" height="40" as="geometry" />
        </mxCell>
      </root>
    </mxGraphModel>
  </diagram>
</mxfile>
